<mxfile host="app.diagrams.net" modified="2021-09-09T08:38:24.846Z" agent="5.0 (Windows NT 10.0; Win64; x64) AppleWebKit/537.36 (KHTML, like Gecko) Chrome/93.0.4577.63 Safari/537.36" etag="uu7QTMuGb7onJiQn6IVY" version="15.1.2" type="github">
  <diagram id="tznZErBPPmd9m9mybXFn" name="第 1 页">
    <mxGraphModel dx="1422" dy="706" grid="1" gridSize="10" guides="1" tooltips="1" connect="1" arrows="1" fold="1" page="1" pageScale="1" pageWidth="827" pageHeight="1169" math="0" shadow="0">
      <root>
        <mxCell id="0" />
        <mxCell id="1" parent="0" />
        <mxCell id="WTTCFvEiVQJhgHqV70Xt-27" value="" style="rounded=0;whiteSpace=wrap;html=1;dashed=1;fillColor=#f5f5f5;strokeColor=#666666;fontColor=#333333;" vertex="1" parent="1">
          <mxGeometry x="90" y="480" width="680" height="80" as="geometry" />
        </mxCell>
        <mxCell id="WTTCFvEiVQJhgHqV70Xt-25" value="" style="rounded=0;whiteSpace=wrap;html=1;dashed=1;fillColor=#f5f5f5;strokeColor=#666666;fontColor=#333333;" vertex="1" parent="1">
          <mxGeometry x="90" y="560" width="680" height="80" as="geometry" />
        </mxCell>
        <mxCell id="WTTCFvEiVQJhgHqV70Xt-24" value="" style="rounded=0;whiteSpace=wrap;html=1;dashed=1;fillColor=#f5f5f5;strokeColor=#666666;fontColor=#333333;" vertex="1" parent="1">
          <mxGeometry x="90" y="400" width="680" height="80" as="geometry" />
        </mxCell>
        <mxCell id="WTTCFvEiVQJhgHqV70Xt-22" value="" style="rounded=0;whiteSpace=wrap;html=1;dashed=1;fillColor=#f5f5f5;strokeColor=#666666;fontColor=#333333;" vertex="1" parent="1">
          <mxGeometry x="90" y="320" width="680" height="80" as="geometry" />
        </mxCell>
        <mxCell id="WTTCFvEiVQJhgHqV70Xt-20" value="" style="rounded=0;whiteSpace=wrap;html=1;dashed=1;fillColor=#f5f5f5;strokeColor=#666666;fontColor=#333333;" vertex="1" parent="1">
          <mxGeometry x="90" y="240" width="680" height="80" as="geometry" />
        </mxCell>
        <mxCell id="WTTCFvEiVQJhgHqV70Xt-19" value="" style="rounded=0;whiteSpace=wrap;html=1;dashed=1;fillColor=#f5f5f5;strokeColor=#666666;fontColor=#333333;" vertex="1" parent="1">
          <mxGeometry x="90" y="160" width="680" height="80" as="geometry" />
        </mxCell>
        <mxCell id="WTTCFvEiVQJhgHqV70Xt-18" value="" style="rounded=0;whiteSpace=wrap;html=1;dashed=1;fillColor=#f5f5f5;strokeColor=#666666;fontColor=#333333;" vertex="1" parent="1">
          <mxGeometry x="90" y="80" width="680" height="80" as="geometry" />
        </mxCell>
        <mxCell id="WTTCFvEiVQJhgHqV70Xt-1" value="WEB" style="rounded=0;whiteSpace=wrap;html=1;fillColor=#f5f5f5;strokeColor=#666666;fontColor=#333333;" vertex="1" parent="1">
          <mxGeometry x="240" y="90" width="510" height="60" as="geometry" />
        </mxCell>
        <mxCell id="WTTCFvEiVQJhgHqV70Xt-2" value="&lt;font color=&quot;#67839c&quot; face=&quot;helvetica neue, helvetica, arial, sans-serif&quot;&gt;&lt;span style=&quot;font-size: 16px&quot;&gt;React&lt;/span&gt;&lt;/font&gt;" style="rounded=0;whiteSpace=wrap;html=1;fillColor=#f5f5f5;strokeColor=#666666;fontColor=#333333;" vertex="1" parent="1">
          <mxGeometry x="240" y="257.5" width="141" height="45" as="geometry" />
        </mxCell>
        <mxCell id="WTTCFvEiVQJhgHqV70Xt-5" value="本地账户&lt;span style=&quot;white-space: pre&quot;&gt; &lt;/span&gt;" style="rounded=0;whiteSpace=wrap;html=1;fillColor=#f5f5f5;strokeColor=#666666;fontColor=#333333;" vertex="1" parent="1">
          <mxGeometry x="270" y="175" width="181" height="50" as="geometry" />
        </mxCell>
        <mxCell id="WTTCFvEiVQJhgHqV70Xt-6" value="LDAP" style="rounded=0;whiteSpace=wrap;html=1;fillColor=#f5f5f5;strokeColor=#666666;fontColor=#333333;" vertex="1" parent="1">
          <mxGeometry x="500" y="175" width="180" height="50" as="geometry" />
        </mxCell>
        <mxCell id="WTTCFvEiVQJhgHqV70Xt-9" value="&lt;font style=&quot;font-size: 16px&quot;&gt;Python&lt;/font&gt;" style="rounded=0;whiteSpace=wrap;html=1;fillColor=#f5f5f5;strokeColor=#666666;fontColor=#333333;" vertex="1" parent="1">
          <mxGeometry x="294" y="415" width="120" height="50" as="geometry" />
        </mxCell>
        <mxCell id="WTTCFvEiVQJhgHqV70Xt-10" value="&lt;font color=&quot;#67839c&quot; face=&quot;helvetica neue, helvetica, arial, sans-serif&quot;&gt;&lt;span style=&quot;font-size: 16px ; background-color: rgb(255 , 255 , 255)&quot;&gt;istio网关&lt;/span&gt;&lt;/font&gt;" style="rounded=0;whiteSpace=wrap;html=1;fillColor=#f5f5f5;strokeColor=#666666;fontColor=#333333;" vertex="1" parent="1">
          <mxGeometry x="414" y="332.5" width="120" height="55" as="geometry" />
        </mxCell>
        <mxCell id="WTTCFvEiVQJhgHqV70Xt-16" value="&lt;font color=&quot;#67839c&quot; face=&quot;helvetica neue, helvetica, arial, sans-serif&quot;&gt;&lt;span style=&quot;font-size: 16px ; background-color: rgb(255 , 255 , 255)&quot;&gt;Mysql&lt;/span&gt;&lt;/font&gt;" style="rounded=0;whiteSpace=wrap;html=1;fillColor=#f5f5f5;strokeColor=#666666;fontColor=#333333;" vertex="1" parent="1">
          <mxGeometry x="389.5" y="573.75" width="120.5" height="52.5" as="geometry" />
        </mxCell>
        <mxCell id="WTTCFvEiVQJhgHqV70Xt-26" value="&lt;span style=&quot;color: rgb(77 , 77 , 77) ; font-family: , &amp;#34;sf ui text&amp;#34; , &amp;#34;arial&amp;#34; , &amp;#34;pingfang sc&amp;#34; , &amp;#34;hiragino sans gb&amp;#34; , &amp;#34;microsoft yahei&amp;#34; , &amp;#34;wenquanyi micro hei&amp;#34; , sans-serif , &amp;#34;simhei&amp;#34; , &amp;#34;simsun&amp;#34; ; font-size: 16px ; background-color: rgb(255 , 255 , 255)&quot;&gt;Ant-design&lt;/span&gt;" style="rounded=0;whiteSpace=wrap;html=1;fillColor=#f5f5f5;strokeColor=#666666;fontColor=#333333;" vertex="1" parent="1">
          <mxGeometry x="400" y="257.5" width="160" height="45" as="geometry" />
        </mxCell>
        <mxCell id="WTTCFvEiVQJhgHqV70Xt-28" value="&lt;font color=&quot;#67839c&quot; face=&quot;helvetica neue, helvetica, arial, sans-serif&quot;&gt;&lt;span style=&quot;font-size: 16px ; background-color: rgb(255 , 255 , 255)&quot;&gt;Redis&lt;/span&gt;&lt;/font&gt;" style="rounded=0;whiteSpace=wrap;html=1;fillColor=#f5f5f5;strokeColor=#666666;fontColor=#333333;" vertex="1" parent="1">
          <mxGeometry x="389.5" y="493.75" width="121" height="52.5" as="geometry" />
        </mxCell>
        <mxCell id="WTTCFvEiVQJhgHqV70Xt-32" value="&lt;font color=&quot;#4d4d4d&quot;&gt;&lt;span style=&quot;font-size: 16px ; background-color: rgb(255 , 255 , 255)&quot;&gt;NodeJs&lt;/span&gt;&lt;/font&gt;" style="rounded=0;whiteSpace=wrap;html=1;fillColor=#f5f5f5;strokeColor=#666666;fontColor=#333333;" vertex="1" parent="1">
          <mxGeometry x="580" y="257.5" width="160" height="45" as="geometry" />
        </mxCell>
        <mxCell id="WTTCFvEiVQJhgHqV70Xt-33" value="&lt;font style=&quot;font-size: 16px&quot;&gt;Django&lt;/font&gt;" style="rounded=0;whiteSpace=wrap;html=1;fillColor=#f5f5f5;strokeColor=#666666;fontColor=#333333;" vertex="1" parent="1">
          <mxGeometry x="500" y="415" width="120" height="50" as="geometry" />
        </mxCell>
        <mxCell id="WTTCFvEiVQJhgHqV70Xt-34" value="" style="rounded=0;whiteSpace=wrap;html=1;shadow=0;glass=0;dashed=1;sketch=0;fillColor=#E6E6E6;" vertex="1" parent="1">
          <mxGeometry x="90" y="80" width="130" height="80" as="geometry" />
        </mxCell>
        <mxCell id="WTTCFvEiVQJhgHqV70Xt-3" value="&lt;font style=&quot;font-size: 16px ; background-color: rgb(230 , 230 , 230)&quot;&gt;终端&lt;/font&gt;" style="text;html=1;align=center;verticalAlign=middle;whiteSpace=wrap;rounded=0;fontSize=16;fillColor=#f5f5f5;strokeColor=#666666;fontColor=#333333;" vertex="1" parent="1">
          <mxGeometry x="120" y="110" width="70" height="20" as="geometry" />
        </mxCell>
        <mxCell id="WTTCFvEiVQJhgHqV70Xt-35" value="" style="rounded=0;whiteSpace=wrap;html=1;shadow=0;glass=0;dashed=1;sketch=0;fillColor=#E6E6E6;" vertex="1" parent="1">
          <mxGeometry x="90" y="160" width="130" height="80" as="geometry" />
        </mxCell>
        <mxCell id="WTTCFvEiVQJhgHqV70Xt-7" value="&lt;font style=&quot;font-size: 16px&quot;&gt;权限控制&lt;/font&gt;" style="text;html=1;align=center;verticalAlign=middle;whiteSpace=wrap;rounded=0;shadow=0;sketch=0;glass=0;fillColor=#f5f5f5;strokeColor=#666666;fontColor=#333333;" vertex="1" parent="1">
          <mxGeometry x="119" y="190" width="70" height="20" as="geometry" />
        </mxCell>
        <mxCell id="WTTCFvEiVQJhgHqV70Xt-36" value="" style="rounded=0;whiteSpace=wrap;html=1;shadow=0;glass=0;dashed=1;sketch=0;fillColor=#E6E6E6;" vertex="1" parent="1">
          <mxGeometry x="90" y="240" width="130" height="80" as="geometry" />
        </mxCell>
        <mxCell id="WTTCFvEiVQJhgHqV70Xt-4" value="&lt;font style=&quot;font-size: 16px&quot;&gt;展现层&lt;/font&gt;" style="text;html=1;align=center;verticalAlign=middle;whiteSpace=wrap;rounded=0;fillColor=#f5f5f5;strokeColor=#666666;fontColor=#333333;" vertex="1" parent="1">
          <mxGeometry x="119" y="265" width="65" height="25" as="geometry" />
        </mxCell>
        <mxCell id="WTTCFvEiVQJhgHqV70Xt-37" value="" style="rounded=0;whiteSpace=wrap;html=1;shadow=0;glass=0;dashed=1;sketch=0;fillColor=#E6E6E6;" vertex="1" parent="1">
          <mxGeometry x="90" y="320" width="130" height="80" as="geometry" />
        </mxCell>
        <mxCell id="WTTCFvEiVQJhgHqV70Xt-23" value="&lt;font style=&quot;font-size: 16px&quot;&gt;网关层&lt;/font&gt;" style="text;html=1;align=center;verticalAlign=middle;whiteSpace=wrap;rounded=0;fillColor=#f5f5f5;strokeColor=#666666;fontColor=#333333;" vertex="1" parent="1">
          <mxGeometry x="122.5" y="347.5" width="65" height="25" as="geometry" />
        </mxCell>
        <mxCell id="WTTCFvEiVQJhgHqV70Xt-38" value="" style="rounded=0;whiteSpace=wrap;html=1;shadow=0;glass=0;dashed=1;sketch=0;fillColor=#E6E6E6;" vertex="1" parent="1">
          <mxGeometry x="90" y="400" width="129" height="80" as="geometry" />
        </mxCell>
        <mxCell id="WTTCFvEiVQJhgHqV70Xt-8" value="&lt;font style=&quot;font-size: 16px&quot;&gt;业务逻辑层&lt;/font&gt;" style="text;html=1;align=center;verticalAlign=middle;whiteSpace=wrap;rounded=0;fillColor=#f5f5f5;strokeColor=#666666;fontColor=#333333;" vertex="1" parent="1">
          <mxGeometry x="105" y="425" width="100" height="30" as="geometry" />
        </mxCell>
        <mxCell id="WTTCFvEiVQJhgHqV70Xt-39" value="" style="rounded=0;whiteSpace=wrap;html=1;shadow=0;glass=0;dashed=1;sketch=0;fillColor=#E6E6E6;" vertex="1" parent="1">
          <mxGeometry x="90" y="480" width="129" height="80" as="geometry" />
        </mxCell>
        <mxCell id="WTTCFvEiVQJhgHqV70Xt-30" value="&lt;span style=&quot;font-size: 16px&quot;&gt;数据缓存&lt;/span&gt;" style="text;html=1;align=center;verticalAlign=middle;whiteSpace=wrap;rounded=0;fillColor=#f5f5f5;strokeColor=#666666;fontColor=#333333;" vertex="1" parent="1">
          <mxGeometry x="105" y="507.5" width="100" height="25" as="geometry" />
        </mxCell>
        <mxCell id="WTTCFvEiVQJhgHqV70Xt-40" value="" style="rounded=0;whiteSpace=wrap;html=1;shadow=0;glass=0;dashed=1;sketch=0;fillColor=#E6E6E6;" vertex="1" parent="1">
          <mxGeometry x="90" y="560" width="129" height="80" as="geometry" />
        </mxCell>
        <mxCell id="WTTCFvEiVQJhgHqV70Xt-15" value="&lt;font style=&quot;font-size: 16px&quot;&gt;数据访问层&lt;/font&gt;" style="text;html=1;align=center;verticalAlign=middle;whiteSpace=wrap;rounded=0;fillColor=#f5f5f5;strokeColor=#666666;fontColor=#333333;" vertex="1" parent="1">
          <mxGeometry x="105" y="593.75" width="100" height="27.5" as="geometry" />
        </mxCell>
        <mxCell id="WTTCFvEiVQJhgHqV70Xt-56" style="edgeStyle=orthogonalEdgeStyle;curved=1;rounded=0;orthogonalLoop=1;jettySize=auto;html=1;entryX=0;entryY=0.25;entryDx=0;entryDy=0;" edge="1" parent="1" source="WTTCFvEiVQJhgHqV70Xt-41" target="WTTCFvEiVQJhgHqV70Xt-49">
          <mxGeometry relative="1" as="geometry" />
        </mxCell>
        <mxCell id="WTTCFvEiVQJhgHqV70Xt-41" value="&lt;font color=&quot;#67839c&quot; face=&quot;helvetica neue, helvetica, arial, sans-serif&quot;&gt;&lt;span style=&quot;font-size: 16px ; background-color: rgb(255 , 255 , 255)&quot;&gt;华为云Function graph&lt;/span&gt;&lt;/font&gt;" style="rounded=0;whiteSpace=wrap;html=1;fillColor=#f5f5f5;strokeColor=#666666;fontColor=#333333;" vertex="1" parent="1">
          <mxGeometry x="50.5" y="747.5" width="175" height="52.5" as="geometry" />
        </mxCell>
        <mxCell id="WTTCFvEiVQJhgHqV70Xt-57" style="edgeStyle=orthogonalEdgeStyle;curved=1;rounded=0;orthogonalLoop=1;jettySize=auto;html=1;entryX=0;entryY=0.5;entryDx=0;entryDy=0;" edge="1" parent="1" source="WTTCFvEiVQJhgHqV70Xt-42" target="WTTCFvEiVQJhgHqV70Xt-49">
          <mxGeometry relative="1" as="geometry" />
        </mxCell>
        <mxCell id="WTTCFvEiVQJhgHqV70Xt-42" value="&lt;font color=&quot;#67839c&quot; face=&quot;helvetica neue, helvetica, arial, sans-serif&quot;&gt;&lt;span style=&quot;font-size: 16px ; background-color: rgb(255 , 255 , 255)&quot;&gt;AWS Lambda&lt;/span&gt;&lt;/font&gt;" style="rounded=0;whiteSpace=wrap;html=1;fillColor=#f5f5f5;strokeColor=#666666;fontColor=#333333;" vertex="1" parent="1">
          <mxGeometry x="63.5" y="835" width="120.5" height="52.5" as="geometry" />
        </mxCell>
        <mxCell id="WTTCFvEiVQJhgHqV70Xt-59" style="edgeStyle=orthogonalEdgeStyle;curved=1;rounded=0;orthogonalLoop=1;jettySize=auto;html=1;entryX=0;entryY=0.5;entryDx=0;entryDy=0;" edge="1" parent="1" source="WTTCFvEiVQJhgHqV70Xt-43" target="WTTCFvEiVQJhgHqV70Xt-49">
          <mxGeometry relative="1" as="geometry" />
        </mxCell>
        <mxCell id="WTTCFvEiVQJhgHqV70Xt-43" value="&lt;font color=&quot;#67839c&quot; face=&quot;helvetica neue, helvetica, arial, sans-serif&quot;&gt;&lt;span style=&quot;font-size: 16px ; background-color: rgb(255 , 255 , 255)&quot;&gt;Skywalking&lt;/span&gt;&lt;/font&gt;" style="rounded=0;whiteSpace=wrap;html=1;fillColor=#f5f5f5;strokeColor=#666666;fontColor=#333333;" vertex="1" parent="1">
          <mxGeometry x="60" y="1030" width="120.5" height="52.5" as="geometry" />
        </mxCell>
        <mxCell id="WTTCFvEiVQJhgHqV70Xt-58" style="edgeStyle=orthogonalEdgeStyle;curved=1;rounded=0;orthogonalLoop=1;jettySize=auto;html=1;entryX=0;entryY=0.5;entryDx=0;entryDy=0;" edge="1" parent="1" source="WTTCFvEiVQJhgHqV70Xt-44" target="WTTCFvEiVQJhgHqV70Xt-49">
          <mxGeometry relative="1" as="geometry" />
        </mxCell>
        <mxCell id="WTTCFvEiVQJhgHqV70Xt-44" value="&lt;font color=&quot;#67839c&quot; face=&quot;helvetica neue, helvetica, arial, sans-serif&quot;&gt;&lt;span style=&quot;font-size: 16px ; background-color: rgb(255 , 255 , 255)&quot;&gt;Prometheus&lt;/span&gt;&lt;/font&gt;" style="rounded=0;whiteSpace=wrap;html=1;fillColor=#f5f5f5;strokeColor=#666666;fontColor=#333333;" vertex="1" parent="1">
          <mxGeometry x="63.5" y="920" width="120.5" height="52.5" as="geometry" />
        </mxCell>
        <mxCell id="WTTCFvEiVQJhgHqV70Xt-61" style="edgeStyle=orthogonalEdgeStyle;curved=1;rounded=0;orthogonalLoop=1;jettySize=auto;html=1;" edge="1" parent="1" source="WTTCFvEiVQJhgHqV70Xt-45" target="WTTCFvEiVQJhgHqV70Xt-49">
          <mxGeometry relative="1" as="geometry" />
        </mxCell>
        <mxCell id="WTTCFvEiVQJhgHqV70Xt-45" value="&lt;font color=&quot;#67839c&quot; face=&quot;helvetica neue, helvetica, arial, sans-serif&quot;&gt;&lt;span style=&quot;font-size: 16px ; background-color: rgb(255 , 255 , 255)&quot;&gt;Script&lt;/span&gt;&lt;/font&gt;" style="rounded=0;whiteSpace=wrap;html=1;fillColor=#f5f5f5;strokeColor=#666666;fontColor=#333333;" vertex="1" parent="1">
          <mxGeometry x="225.5" y="877.5" width="120.5" height="52.5" as="geometry" />
        </mxCell>
        <mxCell id="WTTCFvEiVQJhgHqV70Xt-62" style="edgeStyle=orthogonalEdgeStyle;curved=1;rounded=0;orthogonalLoop=1;jettySize=auto;html=1;entryX=0;entryY=0.5;entryDx=0;entryDy=0;" edge="1" parent="1" source="WTTCFvEiVQJhgHqV70Xt-46" target="WTTCFvEiVQJhgHqV70Xt-49">
          <mxGeometry relative="1" as="geometry" />
        </mxCell>
        <mxCell id="WTTCFvEiVQJhgHqV70Xt-46" value="&lt;font color=&quot;#67839c&quot; face=&quot;helvetica neue, helvetica, arial, sans-serif&quot;&gt;&lt;span style=&quot;font-size: 16px ; background-color: rgb(255 , 255 , 255)&quot;&gt;Grafana&lt;/span&gt;&lt;/font&gt;" style="rounded=0;whiteSpace=wrap;html=1;fillColor=#f5f5f5;strokeColor=#666666;fontColor=#333333;" vertex="1" parent="1">
          <mxGeometry x="250.25" y="800" width="120.5" height="52.5" as="geometry" />
        </mxCell>
        <mxCell id="WTTCFvEiVQJhgHqV70Xt-63" style="edgeStyle=orthogonalEdgeStyle;curved=1;rounded=0;orthogonalLoop=1;jettySize=auto;html=1;entryX=0;entryY=0.5;entryDx=0;entryDy=0;" edge="1" parent="1" source="WTTCFvEiVQJhgHqV70Xt-47" target="WTTCFvEiVQJhgHqV70Xt-49">
          <mxGeometry relative="1" as="geometry" />
        </mxCell>
        <mxCell id="WTTCFvEiVQJhgHqV70Xt-47" value="&lt;font color=&quot;#67839c&quot; face=&quot;helvetica neue, helvetica, arial, sans-serif&quot;&gt;&lt;span style=&quot;font-size: 16px ; background-color: rgb(255 , 255 , 255)&quot;&gt;Cloud montior&lt;/span&gt;&lt;/font&gt;" style="rounded=0;whiteSpace=wrap;html=1;fillColor=#f5f5f5;strokeColor=#666666;fontColor=#333333;" vertex="1" parent="1">
          <mxGeometry x="240" y="967.5" width="120.5" height="52.5" as="geometry" />
        </mxCell>
        <mxCell id="WTTCFvEiVQJhgHqV70Xt-55" style="edgeStyle=orthogonalEdgeStyle;curved=1;rounded=0;orthogonalLoop=1;jettySize=auto;html=1;" edge="1" parent="1" source="WTTCFvEiVQJhgHqV70Xt-49" target="WTTCFvEiVQJhgHqV70Xt-52">
          <mxGeometry relative="1" as="geometry" />
        </mxCell>
        <mxCell id="WTTCFvEiVQJhgHqV70Xt-49" value="&lt;font color=&quot;#67839c&quot; face=&quot;helvetica neue, helvetica, arial, sans-serif&quot;&gt;&lt;span style=&quot;background-color: rgb(255 , 255 , 255)&quot;&gt;&lt;span style=&quot;font-size: 16px&quot;&gt;gwm-unite-&lt;/span&gt;&lt;br&gt;&lt;span style=&quot;font-size: 16px&quot;&gt;monitor&lt;/span&gt;&lt;/span&gt;&lt;/font&gt;" style="rounded=0;whiteSpace=wrap;html=1;fillColor=#f5f5f5;strokeColor=#666666;fontColor=#333333;" vertex="1" parent="1">
          <mxGeometry x="590" y="880" width="400" height="50" as="geometry" />
        </mxCell>
        <mxCell id="WTTCFvEiVQJhgHqV70Xt-52" value="&lt;font color=&quot;#67839c&quot; face=&quot;helvetica neue, helvetica, arial, sans-serif&quot;&gt;&lt;span style=&quot;font-size: 16px ; background-color: rgb(255 , 255 , 255)&quot;&gt;Istio&lt;/span&gt;&lt;/font&gt;" style="rounded=0;whiteSpace=wrap;html=1;fillColor=#f5f5f5;strokeColor=#666666;fontColor=#333333;" vertex="1" parent="1">
          <mxGeometry x="600" y="760" width="380" height="50" as="geometry" />
        </mxCell>
      </root>
    </mxGraphModel>
  </diagram>
</mxfile>
